<?xml version="1.0" standalone="no"?>
<!DOCTYPE svg PUBLIC "-//W3C//DTD SVG 20010904//EN"
 "http://www.w3.org/TR/2001/REC-SVG-20010904/DTD/svg10.dtd">
<svg version="1.0" xmlns="http://www.w3.org/2000/svg"
 width="1000.000000pt" height="1000.000000pt" viewBox="0 0 1000.000000 1000.000000"
 preserveAspectRatio="xMidYMid meet">
<metadata>
Created by potrace 1.11, written by Peter Selinger 2001-2013
</metadata>
<g transform="translate(0.000000,1000.000000) scale(0.100000,-0.100000)"
fill="#000000" stroke="none">
<path d="M3 9972 c3 -16 341 -1516 751 -3334 l746 -3306 0 -1666 0 -1666 904
0 904 0 5 28 c23 113 869 3987 871 3989 1 2 136 -315 298 -705 l296 -707 223
0 223 0 320 768 c176 422 322 764 323 760 2 -8 879 -4054 890 -4105 l5 -28
869 0 869 0 0 1543 0 1543 750 3448 c412 1896 750 3452 750 3457 0 5 -196 9
-489 9 -382 0 -490 -3 -493 -12 -3 -7 -119 -573 -259 -1257 l-254 -1244 -3
1257 -2 1256 -563 0 -562 0 -615 -1460 c-386 -918 -617 -1454 -620 -1443 -4
10 -143 667 -311 1460 l-304 1443 -437 0 -436 0 -10 -42 c-55 -256 -686 -3097
-688 -3095 0 1 -297 707 -659 1570 l-658 1567 -569 0 -568 0 -2 -1165 -3
-1166 -229 1073 c-126 590 -238 1115 -249 1166 l-20 92 -500 0 -500 0 6 -28z
m2387 -1452 c43 -185 177 -583 299 -892 55 -141 101 -259 101 -262 0 -3 185
-448 411 -988 227 -541 414 -992 416 -1003 2 -11 -158 -751 -356 -1645 -397
-1789 -443 -2018 -469 -2314 -11 -122 -28 -107 -36 31 -12 227 -58 568 -107
813 -16 79 -83 396 -149 705 l-119 560 -5 2210 c-2 1266 -9 2315 -15 2455 -5
135 -12 304 -16 375 -6 151 0 145 45 -45z m5266 -91 c-52 -866 -56 -1087 -56
-3306 l0 -2063 -100 -492 c-112 -546 -160 -823 -185 -1063 -10 -88 -19 -162
-21 -164 -6 -6 -12 40 -33 249 -12 113 -32 279 -47 370 -14 91 -189 940 -389
1888 l-364 1723 373 897 c566 1361 704 1725 792 2091 14 58 28 112 30 120 13
43 13 -23 0 -250z m-2596 -176 c0 -141 40 -517 76 -728 9 -49 103 -493 210
-986 l194 -896 -124 -294 c-184 -437 -279 -707 -372 -1051 -18 -66 -34 -108
-42 -108 -7 0 -14 6 -16 13 -2 6 -18 68 -36 137 -66 253 -186 592 -350 985
l-88 210 199 910 c255 1165 283 1317 320 1738 13 144 29 184 29 70z"/>
</g>
</svg>
